v -2.081829 173.043396 7.098108
v -2.332234 173.418671 7.084985
v -2.706991 173.669418 7.065345
v -3.149047 173.757477 7.042177
v -3.591104 173.669418 7.019010
v -3.965861 173.418671 6.999370
v -4.216267 173.043411 6.986247
v -4.304197 172.600739 6.981639
v -4.216267 172.158081 6.986247
v -3.965862 171.782806 6.999370
v -3.591105 171.532059 7.019010
v -3.149048 171.444000 7.042177
v -2.706992 171.532059 7.065345
v -2.332234 171.782806 7.084985
v -2.081829 172.158081 7.098108
v -1.993899 172.600739 7.102716
v -1.975579 173.094467 7.426259
v -2.254869 173.513031 7.411622
v -2.672857 173.792694 7.389717
v -3.165907 173.890915 7.363877
v -3.658957 173.792709 7.338037
v -4.076945 173.513031 7.316131
v -4.356235 173.094467 7.301494
v -4.454309 172.600739 7.296355
v -4.356236 172.107010 7.301494
v -4.076945 171.688446 7.316131
v -3.658958 171.408783 7.338037
v -3.165908 171.310577 7.363877
v -2.672858 171.408783 7.389716
v -2.254870 171.688446 7.411622
v -1.975579 172.107010 7.426259
v -1.877506 172.600739 7.431399
v -1.951682 173.111877 7.773686
v -2.240824 173.545212 7.758533
v -2.673556 173.834747 7.735854
v -3.183999 173.936417 7.709103
v -3.694442 173.834747 7.682352
v -4.127175 173.545212 7.659673
v -4.416318 173.111877 7.644520
v -4.517852 172.600739 7.639199
v -4.416318 172.089600 7.644520
v -4.127176 171.656265 7.659673
v -3.694443 171.366730 7.682352
v -3.184000 171.265060 7.709103
v -2.673557 171.366730 7.735854
v -2.240825 171.656265 7.758533
v -1.951682 172.089600 7.773686
v -1.850148 172.600739 7.779007
v -2.011764 173.094467 8.116712
v -2.291055 173.513031 8.102075
v -2.709042 173.792694 8.080169
v -3.202092 173.890915 8.054329
v -3.695142 173.792709 8.028490
v -4.113130 173.513031 8.006584
v -4.392420 173.094467 7.991947
v -4.490494 172.600739 7.986807
v -4.392421 172.107010 7.991947
v -4.113130 171.688446 8.006584
v -3.695143 171.408783 8.028490
v -3.202093 171.310577 8.054329
v -2.709043 171.408783 8.080169
v -2.291055 171.688446 8.102075
v -2.011765 172.107010 8.116712
v -1.913691 172.600739 8.121852
v -2.151733 173.043396 8.431959
v -2.402138 173.418671 8.418836
v -2.776895 173.669418 8.399196
v -3.218952 173.757477 8.376029
v -3.661008 173.669418 8.352862
v -4.035766 173.418671 8.333221
v -4.286171 173.043396 8.320098
v -4.374101 172.600739 8.315490
v -4.286171 172.158081 8.320098
v -4.035766 171.782806 8.333221
v -3.661009 171.532059 8.352862
v -3.218952 171.444000 8.376029
v -2.776896 171.532059 8.399196
v -2.402138 171.782806 8.418836
v -2.151733 172.158081 8.431959
v -2.063803 172.600739 8.436568
v -2.362049 172.962173 8.697946
v -2.566504 173.268585 8.687231
v -2.872492 173.473312 8.671195
v -3.233429 173.545212 8.652279
v -3.594367 173.473312 8.633363
v -3.900355 173.268585 8.617327
v -4.104810 172.962173 8.606611
v -4.176605 172.600739 8.602849
v -4.104810 172.239304 8.606611
v -3.900356 171.932892 8.617326
v -3.594368 171.728165 8.633363
v -3.233430 171.656265 8.652279
v -2.872492 171.728165 8.671194
v -2.566504 171.932892 8.687231
v -2.362049 172.239304 8.697946
v -2.290254 172.600739 8.701708
v -2.628380 172.856308 8.896544
v -2.772951 173.072968 8.888967
v -2.989317 173.217743 8.877628
v -3.244538 173.268585 8.864252
v -3.499760 173.217743 8.850877
v -3.716126 173.072968 8.839537
v -3.860698 172.856308 8.831961
v -3.911465 172.600739 8.829300
v -3.860698 172.345169 8.831961
v -3.716127 172.128510 8.839537
v -3.499760 171.983734 8.850877
v -3.244539 171.932892 8.864252
v -2.989317 171.983734 8.877628
v -2.772951 172.128510 8.888967
v -2.628380 172.345169 8.896544
v -2.577613 172.600739 8.899204
v -3.016860 172.698639 9.035794
v -3.072238 172.781631 9.032891
v -3.155117 172.837082 9.028548
v -3.252881 172.856552 9.023424
v -3.350644 172.837082 9.018301
v -3.433523 172.781631 9.013957
v -3.488902 172.698639 9.011055
v -3.508348 172.600739 9.010036
v -3.488902 172.502838 9.011055
v -3.433523 172.419846 9.013957
v -3.350644 172.364395 9.018301
v -3.252881 172.344925 9.023424
v -3.155118 172.364395 9.028548
v -3.072238 172.419846 9.032891
v -3.016860 172.502838 9.035794
v -2.997413 172.600739 9.036813
v -3.254112 172.600739 9.046927
v -2.817204 172.780273 8.991620
v -2.918758 172.932465 8.986298
v -3.070745 173.034149 8.978333
v -3.250025 173.069870 8.968937
v -3.429305 173.034149 8.959541
v -3.581292 172.932465 8.951576
v -3.682846 172.780273 8.946254
v -3.718507 172.600739 8.944385
v -3.682846 172.421219 8.946254
v -3.581292 172.269012 8.951576
v -3.429305 172.167328 8.959541
v -3.250025 172.131622 8.968937
v -3.070745 172.167328 8.978333
v -2.918758 172.269012 8.986298
v -2.817204 172.421219 8.991620
v -2.781543 172.600739 8.993489
vt 0.955017 0.688632
vt 0.936500 0.680129
vt 0.848167 0.848416
vt 0.834317 0.833466
vt 0.688317 0.955134
vt 0.681242 0.936020
vt 0.500011 0.992557
vt 0.500011 0.972190
vt 0.311346 0.955002
vt 0.319849 0.936478
vt 0.151599 0.848197
vt 0.166539 0.834331
vt 0.044879 0.688398
vt 0.063984 0.681299
vt 0.007423 0.499990
vt 0.027791 0.499990
vt 0.044931 0.311466
vt 0.063467 0.319942
vt 0.151700 0.151694
vt 0.165586 0.166612
vt 0.311486 0.044929
vt 0.318611 0.064023
vt 0.500011 0.007429
vt 0.500011 0.027795
vt 0.688486 0.044918
vt 0.680027 0.063455
vt 0.848315 0.151706
vt 0.833400 0.165587
vt 0.955103 0.311552
vt 0.936007 0.318655
vt 0.992573 0.499990
vt 0.972212 0.499990
vt 0.879444 0.656787
vt 0.790539 0.790062
vt 0.657407 0.879166
vt 0.500011 0.910540
vt 0.343191 0.879416
vt 0.209936 0.790538
vt 0.120834 0.657439
vt 0.089444 0.499990
vt 0.120544 0.343252
vt 0.209402 0.209984
vt 0.342499 0.120858
vt 0.500011 0.089443
vt 0.656732 0.120532
vt 0.790032 0.209398
vt 0.879170 0.342522
vt 0.910568 0.499990
vt 0.814857 0.630898
vt 0.740781 0.741424
vt 0.630051 0.815185
vt 0.500011 0.840959
vt 0.369085 0.814826
vt 0.258573 0.740769
vt 0.184813 0.630062
vt 0.159029 0.499990
vt 0.185147 0.369119
vt 0.259192 0.258599
vt 0.369897 0.184822
vt 0.500011 0.159022
vt 0.630876 0.185132
vt 0.741418 0.259182
vt 0.815202 0.369903
vt 0.840991 0.499990
vt 0.751196 0.605461
vt 0.691704 0.693557
vt 0.603030 0.752180
vt 0.500011 0.772407
vt 0.394528 0.751162
vt 0.306440 0.691683
vt 0.247819 0.603025
vt 0.227586 0.499990
vt 0.248821 0.394540
vt 0.308293 0.306448
vt 0.396952 0.247816
vt 0.500011 0.227572
vt 0.605461 0.248802
vt 0.693568 0.308277
vt 0.752205 0.396944
vt 0.772442 0.499990
vt 0.685928 0.579026
vt 0.641524 0.644156
vt 0.575577 0.687335
vt 0.500011 0.701990
vt 0.420968 0.685894
vt 0.355843 0.641498
vt 0.312665 0.575560
vt 0.298006 0.499990
vt 0.314098 0.420963
vt 0.358492 0.355836
vt 0.424430 0.312652
vt 0.500011 0.297988
vt 0.579043 0.314076
vt 0.644178 0.358470
vt 0.687365 0.424413
vt 0.702025 0.499990
vt 0.625628 0.554122
vt 0.595347 0.598070
vt 0.550554 0.627084
vt 0.500011 0.636750
vt 0.445878 0.625594
vt 0.401932 0.595318
vt 0.372917 0.550530
vt 0.363251 0.499990
vt 0.374404 0.445861
vt 0.404680 0.401914
vt 0.449470 0.372897
vt 0.500011 0.363228
vt 0.554147 0.374380
vt 0.598098 0.404655
vt 0.627117 0.449446
vt 0.636784 0.499990
vt 0.547290 0.521781
vt 0.537101 0.536585
vt 0.520362 0.548001
vt 0.500011 0.552044
vt 0.478221 0.547264
vt 0.461694 0.535287
vt 0.452000 0.520337
vt 0.447904 0.499990
vt 0.452737 0.478199
vt 0.464713 0.461672
vt 0.481905 0.451081
vt 0.500011 0.447935
vt 0.521805 0.452714
vt 0.538333 0.464690
vt 0.548925 0.481882
vt 0.552124 0.499990
vt 0.500011 0.499990
vt 0.589382 0.538820
vt 0.567717 0.570061
vt 0.535747 0.590634
vt 0.500011 0.597407
vt 0.461183 0.589349
vt 0.429942 0.567687
vt 0.409369 0.535719
vt 0.402596 0.499990
vt 0.410654 0.461160
vt 0.432316 0.429919
vt 0.464285 0.409345
vt 0.500011 0.402570
vt 0.538849 0.410627
vt 0.570092 0.432289
vt 0.590667 0.464257
vt 0.597440 0.499990
vn 0.872411 0.353550 -0.337494
vn 0.672410 0.653277 -0.347985
vn 0.373101 0.853549 -0.363660
vn 0.020036 0.923876 -0.382166
vn -0.333038 0.853536 -0.400703
vn -0.632351 0.653278 -0.416366
vn -0.832362 0.353558 -0.426814
vn -0.902587 0.000001 -0.430507
vn -0.832359 -0.353553 -0.426824
vn -0.632362 -0.653286 -0.416335
vn -0.333037 -0.853552 -0.400668
vn 0.020025 -0.923867 -0.382189
vn 0.373092 -0.853547 -0.363674
vn 0.672415 -0.653283 -0.347964
vn 0.872415 -0.353552 -0.337481
vn 0.942640 0.000000 -0.333811
vn 0.906359 0.370511 -0.203064
vn 0.696770 0.684616 -0.214039
vn 0.383101 0.894494 -0.230466
vn 0.013102 0.968193 -0.249862
vn -0.356905 0.894489 -0.269274
vn -0.670578 0.684612 -0.285712
vn -0.880171 0.370509 -0.296685
vn -0.953768 0.000001 -0.300545
vn -0.880170 -0.370512 -0.296683
vn -0.670582 -0.684619 -0.285687
vn -0.356901 -0.894491 -0.269272
vn 0.013094 -0.968180 -0.249913
vn 0.383091 -0.894488 -0.230504
vn 0.696769 -0.684616 -0.214043
vn 0.906360 -0.370512 -0.203057
vn 0.979958 0.000000 -0.199204
vn 0.922615 0.382680 0.048354
vn 0.706137 0.707107 0.037018
vn 0.382156 0.923880 0.020046
vn 0.000008 1.000000 0.000004
vn -0.382158 0.923880 -0.020026
vn -0.706141 0.707104 -0.037003
vn -0.922614 0.382681 -0.048356
vn -0.998629 0.000001 -0.052339
vn -0.922615 -0.382680 -0.048356
vn -0.706137 -0.707108 -0.037008
vn -0.382150 -0.923883 -0.020029
vn -0.000000 -1.000000 -0.000003
vn 0.382150 -0.923883 0.020026
vn 0.706137 -0.707108 0.037007
vn 0.922615 -0.382680 0.048353
vn 0.998629 -0.000000 0.052338
vn 0.880169 0.370511 0.296688
vn 0.670578 0.684615 0.285706
vn 0.356907 0.894486 0.269282
vn -0.013088 0.968188 0.249882
vn -0.383096 0.894489 0.230490
vn -0.696770 0.684609 0.214059
vn -0.906359 0.370512 0.203062
vn -0.979959 0.000000 0.199198
vn -0.906361 -0.370512 0.203053
vn -0.696771 -0.684617 0.214033
vn -0.383092 -0.894492 0.230488
vn -0.013095 -0.968184 0.249896
vn 0.356901 -0.894491 0.269273
vn 0.670579 -0.684616 0.285701
vn 0.880169 -0.370511 0.296688
vn 0.953766 -0.000001 0.300549
vn 0.781911 0.334831 0.525836
vn 0.592500 0.618688 0.515916
vn 0.309033 0.808350 0.501068
vn -0.025336 0.874951 0.483549
vn -0.359716 0.808348 0.466023
vn -0.643183 0.618686 0.451157
vn -0.832594 0.334830 0.441221
vn -0.899107 0.000000 0.437728
vn -0.832595 -0.334831 0.441218
vn -0.643185 -0.618692 0.451147
vn -0.359715 -0.808362 0.465999
vn -0.025341 -0.874965 0.483523
vn 0.309034 -0.808363 0.501045
vn 0.592505 -0.618694 0.515902
vn 0.781914 -0.334831 0.525832
vn 0.848420 -0.000001 0.529324
vn 0.634859 0.278234 0.720791
vn 0.477470 0.514109 0.712541
vn 0.241923 0.671717 0.700193
vn -0.035933 0.727054 0.685639
vn -0.313789 0.671714 0.671071
vn -0.549335 0.514113 0.658725
vn -0.706725 0.278234 0.650481
vn -0.762000 -0.000000 0.647577
vn -0.706720 -0.278231 0.650488
vn -0.549329 -0.514106 0.658735
vn -0.313790 -0.671721 0.671064
vn -0.035933 -0.727066 0.685627
vn 0.241924 -0.671721 0.700188
vn 0.477473 -0.514116 0.712534
vn 0.634864 -0.278234 0.720787
vn 0.690131 -0.000002 0.723685
vn 0.484938 0.218948 0.846698
vn 0.361089 0.404564 0.840204
vn 0.175727 0.528580 0.830496
vn -0.042926 0.572122 0.819045
vn -0.261576 0.528584 0.807575
vn -0.446933 0.404563 0.797860
vn -0.570784 0.218948 0.791370
vn -0.614275 -0.000001 0.789092
vn -0.570764 -0.218938 0.791388
vn -0.446918 -0.404547 0.797876
vn -0.261571 -0.528579 0.807579
vn -0.042925 -0.572126 0.819042
vn 0.175724 -0.528583 0.830494
vn 0.361084 -0.404562 0.840207
vn 0.484931 -0.218943 0.846703
vn 0.528425 -0.000001 0.848980
vn 0.142845 0.080473 0.986468
vn 0.097331 0.148708 0.984080
vn 0.029198 0.194290 0.980509
vn -0.051165 0.210286 0.976300
vn -0.131530 0.194292 0.972086
vn -0.199656 0.148702 0.968517
vn -0.245171 0.080470 0.966135
vn -0.261180 -0.000003 0.965290
vn -0.245190 -0.080475 0.966129
vn -0.199654 -0.148700 0.968518
vn -0.131525 -0.194293 0.972086
vn -0.051164 -0.210289 0.976299
vn 0.029193 -0.194294 0.980509
vn 0.097335 -0.148704 0.984080
vn 0.142851 -0.080479 0.986467
vn 0.158833 0.000001 0.987305
vn -0.052332 0.000001 0.998630
vn 0.317877 0.151781 0.935904
vn 0.232027 0.280463 0.931399
vn 0.103528 0.366417 0.924673
vn -0.048043 0.396603 0.916732
vn -0.199613 0.366418 0.908786
vn -0.328116 0.280463 0.902043
vn -0.413972 0.151784 0.897546
vn -0.444111 -0.000001 0.895972
vn -0.413966 -0.151775 0.897550
vn -0.328111 -0.280456 0.902046
vn -0.199610 -0.366425 0.908784
vn -0.048046 -0.396595 0.916735
vn 0.103519 -0.366417 0.924674
vn 0.232025 -0.280451 0.931403
vn 0.317868 -0.151775 0.935908
vn 0.348009 0.000001 0.937491
f 1/1/1 2/3/2 18/4/18 17/2/17
f 2/3/2 3/5/3 19/6/19 18/4/18
f 3/5/3 4/7/4 20/8/20 19/6/19
f 4/7/4 5/9/5 21/10/21 20/8/20
f 5/9/5 6/11/6 22/12/22 21/10/21
f 6/11/6 7/13/7 23/14/23 22/12/22
f 7/13/7 8/15/8 24/16/24 23/14/23
f 8/15/8 9/17/9 25/18/25 24/16/24
f 9/17/9 10/19/10 26/20/26 25/18/25
f 10/19/10 11/21/11 27/22/27 26/20/26
f 11/21/11 12/23/12 28/24/28 27/22/27
f 12/23/12 13/25/13 29/26/29 28/24/28
f 13/25/13 14/27/14 30/28/30 29/26/29
f 14/27/14 15/29/15 31/30/31 30/28/30
f 15/29/15 16/31/16 32/32/32 31/30/31
f 16/31/16 1/1/1 17/2/17 32/32/32
f 17/2/17 18/4/18 34/34/34 33/33/33
f 18/4/18 19/6/19 35/35/35 34/34/34
f 19/6/19 20/8/20 36/36/36 35/35/35
f 20/8/20 21/10/21 37/37/37 36/36/36
f 21/10/21 22/12/22 38/38/38 37/37/37
f 22/12/22 23/14/23 39/39/39 38/38/38
f 23/14/23 24/16/24 40/40/40 39/39/39
f 24/16/24 25/18/25 41/41/41 40/40/40
f 25/18/25 26/20/26 42/42/42 41/41/41
f 26/20/26 27/22/27 43/43/43 42/42/42
f 27/22/27 28/24/28 44/44/44 43/43/43
f 28/24/28 29/26/29 45/45/45 44/44/44
f 29/26/29 30/28/30 46/46/46 45/45/45
f 30/28/30 31/30/31 47/47/47 46/46/46
f 31/30/31 32/32/32 48/48/48 47/47/47
f 32/32/32 17/2/17 33/33/33 48/48/48
f 33/33/33 34/34/34 50/50/50 49/49/49
f 34/34/34 35/35/35 51/51/51 50/50/50
f 35/35/35 36/36/36 52/52/52 51/51/51
f 36/36/36 37/37/37 53/53/53 52/52/52
f 37/37/37 38/38/38 54/54/54 53/53/53
f 38/38/38 39/39/39 55/55/55 54/54/54
f 39/39/39 40/40/40 56/56/56 55/55/55
f 40/40/40 41/41/41 57/57/57 56/56/56
f 41/41/41 42/42/42 58/58/58 57/57/57
f 42/42/42 43/43/43 59/59/59 58/58/58
f 43/43/43 44/44/44 60/60/60 59/59/59
f 44/44/44 45/45/45 61/61/61 60/60/60
f 45/45/45 46/46/46 62/62/62 61/61/61
f 46/46/46 47/47/47 63/63/63 62/62/62
f 47/47/47 48/48/48 64/64/64 63/63/63
f 48/48/48 33/33/33 49/49/49 64/64/64
f 49/49/49 50/50/50 66/66/66 65/65/65
f 50/50/50 51/51/51 67/67/67 66/66/66
f 51/51/51 52/52/52 68/68/68 67/67/67
f 52/52/52 53/53/53 69/69/69 68/68/68
f 53/53/53 54/54/54 70/70/70 69/69/69
f 54/54/54 55/55/55 71/71/71 70/70/70
f 55/55/55 56/56/56 72/72/72 71/71/71
f 56/56/56 57/57/57 73/73/73 72/72/72
f 57/57/57 58/58/58 74/74/74 73/73/73
f 58/58/58 59/59/59 75/75/75 74/74/74
f 59/59/59 60/60/60 76/76/76 75/75/75
f 60/60/60 61/61/61 77/77/77 76/76/76
f 61/61/61 62/62/62 78/78/78 77/77/77
f 62/62/62 63/63/63 79/79/79 78/78/78
f 63/63/63 64/64/64 80/80/80 79/79/79
f 64/64/64 49/49/49 65/65/65 80/80/80
f 65/65/65 66/66/66 82/82/82 81/81/81
f 66/66/66 67/67/67 83/83/83 82/82/82
f 67/67/67 68/68/68 84/84/84 83/83/83
f 68/68/68 69/69/69 85/85/85 84/84/84
f 69/69/69 70/70/70 86/86/86 85/85/85
f 70/70/70 71/71/71 87/87/87 86/86/86
f 71/71/71 72/72/72 88/88/88 87/87/87
f 72/72/72 73/73/73 89/89/89 88/88/88
f 73/73/73 74/74/74 90/90/90 89/89/89
f 74/74/74 75/75/75 91/91/91 90/90/90
f 75/75/75 76/76/76 92/92/92 91/91/91
f 76/76/76 77/77/77 93/93/93 92/92/92
f 77/77/77 78/78/78 94/94/94 93/93/93
f 78/78/78 79/79/79 95/95/95 94/94/94
f 79/79/79 80/80/80 96/96/96 95/95/95
f 80/80/80 65/65/65 81/81/81 96/96/96
f 81/81/81 82/82/82 98/98/98 97/97/97
f 82/82/82 83/83/83 99/99/99 98/98/98
f 83/83/83 84/84/84 100/100/100 99/99/99
f 84/84/84 85/85/85 101/101/101 100/100/100
f 85/85/85 86/86/86 102/102/102 101/101/101
f 86/86/86 87/87/87 103/103/103 102/102/102
f 87/87/87 88/88/88 104/104/104 103/103/103
f 88/88/88 89/89/89 105/105/105 104/104/104
f 89/89/89 90/90/90 106/106/106 105/105/105
f 90/90/90 91/91/91 107/107/107 106/106/106
f 91/91/91 92/92/92 108/108/108 107/107/107
f 92/92/92 93/93/93 109/109/109 108/108/108
f 93/93/93 94/94/94 110/110/110 109/109/109
f 94/94/94 95/95/95 111/111/111 110/110/110
f 95/95/95 96/96/96 112/112/112 111/111/111
f 96/96/96 81/81/81 97/97/97 112/112/112
f 130/130/130 131/131/131 114/114/114 113/113/113
f 131/131/131 132/132/132 115/115/115 114/114/114
f 132/132/132 133/133/133 116/116/116 115/115/115
f 133/133/133 134/134/134 117/117/117 116/116/116
f 134/134/134 135/135/135 118/118/118 117/117/117
f 135/135/135 136/136/136 119/119/119 118/118/118
f 136/136/136 137/137/137 120/120/120 119/119/119
f 137/137/137 138/138/138 121/121/121 120/120/120
f 138/138/138 139/139/139 122/122/122 121/121/121
f 139/139/139 140/140/140 123/123/123 122/122/122
f 140/140/140 141/141/141 124/124/124 123/123/123
f 141/141/141 142/142/142 125/125/125 124/124/124
f 142/142/142 143/143/143 126/126/126 125/125/125
f 143/143/143 144/144/144 127/127/127 126/126/126
f 144/144/144 145/145/145 128/128/128 127/127/127
f 145/145/145 130/130/130 113/113/113 128/128/128
f 113/113/113 114/114/114 129/129/129
f 114/114/114 115/115/115 129/129/129
f 115/115/115 116/116/116 129/129/129
f 116/116/116 117/117/117 129/129/129
f 117/117/117 118/118/118 129/129/129
f 118/118/118 119/119/119 129/129/129
f 119/119/119 120/120/120 129/129/129
f 120/120/120 121/121/121 129/129/129
f 121/121/121 122/122/122 129/129/129
f 122/122/122 123/123/123 129/129/129
f 123/123/123 124/124/124 129/129/129
f 124/124/124 125/125/125 129/129/129
f 125/125/125 126/126/126 129/129/129
f 126/126/126 127/127/127 129/129/129
f 127/127/127 128/128/128 129/129/129
f 128/128/128 113/113/113 129/129/129
f 97/97/97 98/98/98 131/131/131 130/130/130
f 98/98/98 99/99/99 132/132/132 131/131/131
f 99/99/99 100/100/100 133/133/133 132/132/132
f 100/100/100 101/101/101 134/134/134 133/133/133
f 101/101/101 102/102/102 135/135/135 134/134/134
f 102/102/102 103/103/103 136/136/136 135/135/135
f 103/103/103 104/104/104 137/137/137 136/136/136
f 104/104/104 105/105/105 138/138/138 137/137/137
f 105/105/105 106/106/106 139/139/139 138/138/138
f 106/106/106 107/107/107 140/140/140 139/139/139
f 107/107/107 108/108/108 141/141/141 140/140/140
f 108/108/108 109/109/109 142/142/142 141/141/141
f 109/109/109 110/110/110 143/143/143 142/142/142
f 110/110/110 111/111/111 144/144/144 143/143/143
f 111/111/111 112/112/112 145/145/145 144/144/144
f 112/112/112 97/97/97 130/130/130 145/145/145
